HIERARCHY
ROOT Pelvis
{
	OFFSET 0.000000 0.000000 0.000000
	CHANNELS 6 Xposition Yposition Zposition Xrotation Yrotation Zrotation
	JOINT LeftUpLeg_virtual
	{
		OFFSET 0.000000 0.000000 0.000000
		CHANNELS 3 Xrotation Yrotation Zrotation
		JOINT LeftUpLeg
		{
			OFFSET 18.735201 -5.666702 -4.541200
			CHANNELS 3 Xrotation Yrotation Zrotation
			JOINT LeftLeg
			{
				OFFSET -0.021200 -31.938179 0.493100
				CHANNELS 3 Xrotation Yrotation Zrotation
				JOINT LeftFoot
				{
					OFFSET 0.021200 -31.938179 -4.336299
					CHANNELS 3 Xrotation Yrotation Zrotation
					JOINT LeftToeBase
					{
						OFFSET 0.943001 -26.722000 15.023500
						CHANNELS 3 Xrotation Yrotation Zrotation
						End Site
						{
							OFFSET 0 0 0
						}
					}
				}
			}
		}
	}
	JOINT RightUpLeg_virtual
	{
		OFFSET 0.000000 0.000000 0.000000
		CHANNELS 3 Xrotation Yrotation Zrotation
		JOINT RightUpLeg
		{
			OFFSET -18.735201 -5.666702 -4.541200
			CHANNELS 3 Xrotation Yrotation Zrotation
			JOINT RightLeg
			{
				OFFSET 0.018946 -31.938133 0.493100
				CHANNELS 3 Xrotation Yrotation Zrotation
				JOINT RightFoot
				{
					OFFSET -0.018946 -31.938126 -4.336299
					CHANNELS 3 Xrotation Yrotation Zrotation
					JOINT RightToeBase
					{
						OFFSET -0.943001 -26.722004 15.023500
						CHANNELS 3 Xrotation Yrotation Zrotation
						End Site
						{
							OFFSET 0 0 0
						}
					}
				}
			}
		}
	}
	JOINT Hips_virtual
	{
		OFFSET 0.000000 0.000000 0.000000
		CHANNELS 3 Xrotation Yrotation Zrotation
		JOINT Hips
		{
			OFFSET -0.000000 -0.000000 -0.000000
			CHANNELS 3 Xrotation Yrotation Zrotation
			JOINT Spine
			{
				OFFSET 0.000000 10.199997 -0.299500
				CHANNELS 3 Xrotation Yrotation Zrotation
				JOINT Spine1
				{
					OFFSET 0.000000 11.900002 -1.516600
					CHANNELS 3 Xrotation Yrotation Zrotation
					JOINT Spine2
					{
						OFFSET 0.000000 13.600006 -2.842500
						CHANNELS 3 Xrotation Yrotation Zrotation
						JOINT Neck_virtual
						{
							OFFSET 0.000000 0.000000 0.000000
							CHANNELS 3 Xrotation Yrotation Zrotation
							JOINT Neck
							{
								OFFSET 0.000000 9.624100 -2.890100
								CHANNELS 3 Xrotation Yrotation Zrotation
								JOINT Head
								{
									OFFSET 0.000000 14.068802 -1.351900
									CHANNELS 3 Xrotation Yrotation Zrotation
									End Site
									{
										OFFSET 0 0 0
									}
								}
							}
						}
						JOINT LeftShoulder_virtual
						{
							OFFSET 0.000000 0.000000 0.000000
							CHANNELS 3 Xrotation Yrotation Zrotation
							JOINT LeftShoulder
							{
								OFFSET 15.263000 10.923401 -0.547700
								CHANNELS 3 Xrotation Yrotation Zrotation
								JOINT LeftArm
								{
									OFFSET 25.438599 -2.830597 -13.032500
									CHANNELS 3 Xrotation Yrotation Zrotation
									JOINT LeftForeArm
									{
										OFFSET 29.960503 0.000000 0.000000
										CHANNELS 3 Xrotation Yrotation Zrotation
										JOINT LeftHand
										{
											OFFSET 27.849251 0.000000 0.000000
											CHANNELS 3 Xrotation Yrotation Zrotation
											End Site
											{
												OFFSET 0 0 0
											}
										}
									}
								}
							}
						}
						JOINT RightShoulder_virtual
						{
							OFFSET 0.000000 0.000000 0.000000
							CHANNELS 3 Xrotation Yrotation Zrotation
							JOINT RightShoulder
							{
								OFFSET -15.263000 10.923401 -0.547700
								CHANNELS 3 Xrotation Yrotation Zrotation
								JOINT RightArm
								{
									OFFSET -25.438599 -2.830597 -13.032500
									CHANNELS 3 Xrotation Yrotation Zrotation
									JOINT RightForeArm
									{
										OFFSET -29.960503 0.000000 0.000000
										CHANNELS 3 Xrotation Yrotation Zrotation
										JOINT RightHand
										{
											OFFSET -27.849251 0.000000 0.000000
											CHANNELS 3 Xrotation Yrotation Zrotation
											End Site
											{
												OFFSET 0 0 0
											}
										}
									}
								}
							}
						}
					}
				}
			}
		}
	}
}
MOTION
Frames: 8
Frame Time: 0.03333333
-9.535455 88.703705 16.799112 0.000000 0.000000 0.000000 -8.076708 -26.186759 4.827192 -32.964566 1.544356 -0.624286 31.271536 3.862917 4.160809 31.396979 3.223751 -28.105802 0.000000 0.000000 0.000000 -8.779506 -25.462221 4.992397 -13.138367 0.983678 11.981300 24.367287 -8.293102 1.953191 3.312773 -15.744663 -10.737245 0.000000 0.000000 0.000000 -8.306693 -26.265952 5.090577 -0.820254 0.038978 -0.035783 5.316206 8.101433 -4.514580 4.790669 2.801835 -5.367161 0.000000 0.000000 0.000000 1.716718 1.642382 -4.308941 1.013650 0.456289 -0.071706 0.000000 0.000000 0.000000 1.775569 1.524019 -4.422799 -2.011197 -5.106067 -7.875894 -2.724627 14.023917 -35.754070 1.550870 -33.317762 11.639984 0.000000 0.000000 0.000000 0.614684 2.734877 -4.849877 -0.050221 15.979473 7.879543 -39.558427 4.577185 8.433975 30.385705 27.604049 -33.023384 0.000000 0.000000 0.000000 
-10.124281 88.569084 18.321941 0.000000 0.000000 0.000000 -8.663382 -27.243955 4.745546 -34.124991 0.865375 -1.229536 31.552301 2.989462 3.549656 29.522021 2.201996 -27.949032 0.000000 0.000000 0.000000 -9.221656 -26.550479 4.572915 -14.363475 0.377852 10.860674 29.976403 -6.185140 2.169914 11.669418 -12.842398 -4.766985 0.000000 0.000000 0.000000 -8.657774 -27.340641 4.877741 -0.791198 0.000217 -0.044276 5.446034 8.543737 -4.362364 4.625878 3.031747 -5.272604 0.000000 0.000000 0.000000 1.960588 1.908485 -4.287749 0.988356 0.431146 -0.139488 0.000000 0.000000 0.000000 1.764405 1.805196 -4.330783 -2.373948 -4.554107 -6.938122 -4.207829 16.147375 -33.033612 1.300948 -34.691794 11.897653 0.000000 0.000000 0.000000 0.602984 3.044416 -4.869612 -0.085639 16.065527 7.456824 -40.864960 8.453793 8.032926 30.148708 27.822393 -32.958620 0.000000 0.000000 0.000000 
-11.110834 88.280090 20.046932 0.000000 0.000000 0.000000 -9.211002 -29.653277 4.435658 -35.216711 1.785807 -2.569844 31.892069 3.125259 1.588230 30.043868 2.771848 -26.591832 0.000000 0.000000 0.000000 -9.882076 -28.903325 4.002611 -14.485699 1.059607 10.957903 34.772107 -4.384392 1.153110 16.151391 -10.042863 -3.797307 0.000000 0.000000 0.000000 -9.053936 -29.700743 4.564149 -0.756253 -0.033748 -0.078786 5.699956 9.543040 -4.125007 4.541958 3.599966 -4.929642 0.000000 0.000000 0.000000 2.118766 2.538840 -4.084499 0.918070 0.521655 -0.253426 0.000000 0.000000 0.000000 1.827182 2.428676 -4.033921 -2.769207 -3.768728 -5.676811 -5.749404 18.957508 -28.608387 1.202285 -36.611474 12.088529 0.000000 0.000000 0.000000 0.843297 3.670343 -4.560464 -0.066820 15.428366 6.450134 -41.592174 13.242201 7.310383 30.281374 28.875089 -33.723154 0.000000 0.000000 0.000000 
-12.257123 87.932083 21.642256 0.000000 0.000000 0.000000 -9.618577 -32.932071 3.918115 -35.512749 4.047422 -4.861134 31.579878 4.406809 -0.933391 32.945937 5.528366 -23.875273 0.000000 0.000000 0.000000 -10.401431 -32.079452 3.372843 -11.866936 2.138140 12.158142 35.980818 -4.303388 -0.410063 11.759345 -9.229246 -8.317757 0.000000 0.000000 0.000000 -9.382869 -32.743814 4.127568 -0.762715 -0.045786 -0.132960 5.942550 10.914788 -3.783563 4.507730 4.410109 -4.338046 0.000000 0.000000 0.000000 2.079550 3.382520 -3.631832 0.839950 0.736250 -0.347101 0.000000 0.000000 0.000000 1.955993 3.252536 -3.529551 -3.126276 -2.919398 -4.471251 -6.673910 21.880159 -23.455524 1.074892 -37.968533 12.054451 0.000000 0.000000 0.000000 1.236820 4.471766 -3.935431 -0.030522 14.278056 5.036987 -41.242000 18.444286 5.843674 30.650218 30.427943 -34.930953 0.000000 0.000000 0.000000 
-13.494275 87.580490 23.123699 0.000000 0.000000 0.000000 -9.753380 -36.508153 3.278859 -34.279835 6.571417 -8.643971 30.164564 6.293561 -2.950210 36.294454 10.223216 -20.408566 0.000000 0.000000 0.000000 -10.368305 -35.601869 2.768647 -7.224265 3.146779 13.847009 33.880723 -4.870171 -1.859982 4.476522 -8.653126 -13.697030 0.000000 0.000000 0.000000 -9.470951 -35.919562 3.601968 -0.810468 -0.024940 -0.157465 5.986280 12.418092 -3.359441 4.375766 5.305927 -3.510311 0.000000 0.000000 0.000000 1.877163 4.301417 -2.927102 0.787845 1.014280 -0.368422 0.000000 0.000000 0.000000 2.100188 4.142359 -2.861719 -3.432066 -2.078627 -3.414662 -7.131623 24.794686 -18.381376 0.778794 -37.971180 11.813002 0.000000 0.000000 0.000000 1.590820 5.312580 -3.035178 0.006363 12.992208 3.472917 -39.863668 23.726805 3.363977 31.109309 32.275051 -36.221258 0.000000 0.000000 0.000000 
-14.895528 87.364639 24.471668 0.000000 0.000000 0.000000 -9.526861 -39.810994 2.619279 -31.238611 8.157375 -13.410508 27.722993 8.198968 -4.053161 37.522908 15.279504 -17.299517 0.000000 0.000000 0.000000 -9.979951 -38.877478 2.117470 -2.533760 4.014380 15.494241 30.230930 -4.344516 -2.861409 2.264946 -7.627527 -15.276703 0.000000 0.000000 0.000000 -9.447633 -38.685109 2.918069 -0.866898 -0.007198 -0.141021 5.767077 13.792180 -2.990119 4.078101 6.115532 -2.574298 0.000000 0.000000 0.000000 1.541913 5.116350 -2.091032 0.763382 1.298016 -0.288986 0.000000 0.000000 0.000000 2.119855 4.949967 -2.126753 -3.729166 -1.424573 -2.611412 -7.688425 27.686085 -13.822221 0.271554 -36.913833 11.503641 0.000000 0.000000 0.000000 1.635767 6.097549 -1.998570 -0.003722 11.826398 2.119809 -38.102962 28.606116 0.674999 31.427545 33.958560 -37.139137 0.000000 0.000000 0.000000 
-16.407206 87.207092 25.743153 0.000000 0.000000 0.000000 -9.159991 -42.238505 2.074062 -27.825450 8.917593 -17.599688 25.502888 9.430540 -4.893278 34.752822 18.987161 -15.213534 0.000000 0.000000 0.000000 -9.470733 -41.241061 1.464005 1.085022 4.316149 16.540935 26.732158 -2.694524 -3.164127 4.530909 -6.441857 -13.017566 0.000000 0.000000 0.000000 -9.319050 -40.719812 2.162701 -0.912494 -0.015045 -0.105614 5.274712 14.853918 -2.699540 3.702931 6.740553 -1.752293 0.000000 0.000000 0.000000 1.212478 5.737776 -1.348069 0.786232 1.540019 -0.126205 0.000000 0.000000 0.000000 1.992915 5.557695 -1.531704 -4.060403 -1.162905 -1.938550 -8.826723 30.519071 -9.800292 -0.277525 -35.951083 11.350324 0.000000 0.000000 0.000000 1.444864 6.726546 -1.070398 -0.045938 10.766203 1.022012 -37.209344 32.462448 -0.953281 31.448305 35.275758 -37.442544 0.000000 0.000000 0.000000 
-18.045959 86.971031 26.563627 0.000000 0.000000 0.000000 -8.924197 -43.581395 1.648792 -25.973128 9.711473 -19.871308 25.934148 9.796414 -6.345830 28.284843 21.267934 -13.578470 0.000000 0.000000 0.000000 -9.044988 -42.614746 0.882462 3.718133 3.278510 16.586657 24.993477 -1.096922 -2.276526 5.177406 -5.177032 -8.915881 0.000000 0.000000 0.000000 -9.157991 -42.110927 1.455446 -0.911083 -0.002126 -0.087438 4.567264 15.484274 -2.474018 3.387033 7.136012 -1.303557 0.000000 0.000000 0.000000 0.955817 6.149887 -0.914669 0.841823 1.694213 0.059459 0.000000 0.000000 0.000000 1.768005 5.900400 -1.286228 -4.434026 -1.382489 -1.326157 -10.776238 32.840256 -6.530486 -0.552006 -35.826542 11.557982 0.000000 0.000000 0.000000 1.149739 7.162175 -0.463103 -0.035149 9.852247 0.194194 -38.216165 34.785450 -0.045603 31.038490 36.096744 -37.157954 0.000000 0.000000 0.000000 
